<svg width="93" height="93" viewBox="0 0 93 93" fill="none" xmlns="http://www.w3.org/2000/svg">
<path d="M45.9362 44.8125H37.915V31.9862H47.4862C52.3687 31.9862 55.0812 34.1562 55.0812 38.1475C55.0812 42.4875 51.865 44.8125 45.9362 44.8125ZM47.37 49.1912H37.915V63.2963H47.835C53.88 63.2963 57.0575 60.855 57.0575 56.205C57.0575 51.555 53.7637 49.1912 47.37 49.1912ZM85.5 20.8263V72.6738C85.5 79.6875 79.6875 85.5 72.6738 85.5H20.8263C13.8125 85.5 8 79.6875 8 72.6738V20.8263C8 13.8125 13.8125 8 20.8263 8H72.6738C79.6875 8 85.5 13.8125 85.5 20.8263ZM62.25 56.4375C62.25 51.09 58.685 47.2537 53.2212 46.5562V46.3237C57.0962 45.6263 60.1575 41.7513 60.1575 37.5662C60.1575 31.56 55.5075 27.5688 48.6875 27.5688H32.9163V67.7137H48.5713C57.135 67.7137 62.25 63.49 62.25 56.4375Z" fill="#7305FF"/>
</svg>
