<svg width="88" height="86" viewBox="0 0 88 86" fill="none" xmlns="http://www.w3.org/2000/svg">
<g clip-path="url(#clip0_1_156)">
<path d="M0 0H88V86H0V0ZM23.1244 71.8578C25.08 75.9189 28.9422 79.2633 35.5422 79.2633C42.8756 79.2633 47.9111 75.4411 47.9111 67.08V39.4644H39.6V66.8889C39.6 70.9978 37.8889 72.0489 35.2 72.0489C32.3644 72.0489 31.1911 70.1378 29.8711 67.8922L23.1244 71.8578ZM52.36 70.9978C54.8044 75.68 59.7422 79.2633 67.4667 79.2633C75.2889 79.2633 81.1556 75.2978 81.1556 67.9878C81.1556 61.2511 77.1956 58.2411 70.1556 55.2789L68.1022 54.4189C64.5333 52.9378 63.0178 51.9344 63.0178 49.5456C63.0178 47.5867 64.5333 46.0578 66.9778 46.0578C69.3244 46.0578 70.8889 47.0611 72.3067 49.5456L78.7111 45.3889C76.0222 40.8022 72.2089 39.0344 66.9778 39.0344C59.5956 39.0344 54.8533 43.6211 54.8533 49.6889C54.8533 56.2822 58.8133 59.3878 64.7778 61.8722L66.8311 62.7322C70.6444 64.3567 72.8933 65.36 72.8933 68.1311C72.8933 70.4244 70.6933 72.0967 67.2711 72.0967C63.2133 72.0967 60.8667 70.0422 59.1067 67.1756L52.36 70.9978Z" fill="#F8C205"/>
</g>
<defs>
<clipPath id="clip0_1_156">
<rect width="88" height="86" fill="white"/>
</clipPath>
</defs>
</svg>
