<svg width="93" height="93" viewBox="0 0 93 93" fill="none" xmlns="http://www.w3.org/2000/svg">
<path d="M56.6525 32.3563C55.025 33.4413 49.8713 36.3863 49.0962 36.9675C47.585 38.1688 46.19 38.0913 44.6787 36.9288C43.9037 36.3088 38.75 33.3638 37.1225 32.3175C35.2625 31.1163 35.3787 29.605 37.4325 28.7525C43.7875 26.0788 50.1425 26.2725 56.4587 28.8687C58.3575 29.6825 58.435 31.1938 56.6525 32.3563ZM84.63 60.5663C81.0263 52.4675 76.105 45.105 69.75 38.6338C67.6963 36.5025 66.4175 34.1 65.6425 31.3488C65.255 30.07 64.9838 28.7525 64.7125 27.435C63.9375 24.025 63.5887 20.5375 62 17.3212C59.1712 11.1987 54.25 8.02125 47.12 7.75C40.1062 7.94375 34.875 10.8888 31.8137 17.05C31 18.7163 30.4187 20.46 30.0312 22.2425C29.3725 25.1875 28.7912 28.2488 28.0937 31.2325C27.5125 33.7513 26.35 35.9213 24.3737 37.8588C18.135 43.9425 13.1362 50.9175 9.33875 58.59C8.79625 59.7138 8.25375 60.8375 7.905 62C7.16875 64.5575 9.02875 66.34 11.7412 65.72C13.4462 65.3713 15.1512 65.0225 16.7787 64.5188C18.3675 63.9375 18.9875 64.325 19.375 65.875C21.8937 74.2063 27.3962 80.0575 35.805 83.3125C51.77 89.3575 70.4087 80.755 74.4388 65.565C74.71 64.5188 75.0975 64.1313 76.26 64.5188C78.0425 65.0613 79.8638 65.4488 81.685 65.875C83.5837 66.2238 84.9788 65.255 85.25 63.395C85.3662 62.3875 85.0175 61.4963 84.63 60.5663Z" fill="#0C0C0C"/>
</svg>
