<svg width="93" height="93" viewBox="0 0 93 93" fill="none" xmlns="http://www.w3.org/2000/svg">
<path d="M46.5 39.1762C50.4912 39.1762 53.7463 42.4312 53.7463 46.5C53.7463 50.375 50.4912 53.6687 46.5 53.6687C42.5088 53.6687 39.2537 50.375 39.2537 46.5C39.2537 42.4312 42.5088 39.1762 46.5 39.1762ZM28.5588 77.5C31 78.9725 36.3475 76.725 42.5088 70.9125C40.4938 68.6262 38.5175 66.1462 36.6575 63.55C33.48 63.24 30.3412 62.775 27.3575 62.155C25.3813 70.4475 26.1175 76.1437 28.5588 77.5ZM31.31 55.2575L30.1863 53.2812C29.76 54.405 29.3337 55.5287 29.0625 56.6137C30.1087 56.8462 31.2712 57.04 32.4725 57.2337C32.085 56.575 31.6975 55.9162 31.31 55.2575ZM56.6525 52.3125L59.7913 46.5L56.6525 40.6875C55.49 38.6337 54.25 36.8125 53.1263 34.9912C51.0337 34.875 48.825 34.875 46.5 34.875C44.175 34.875 41.9663 34.875 39.8737 34.9912C38.75 36.8125 37.51 38.6337 36.3475 40.6875L33.2087 46.5L36.3475 52.3125C37.51 54.3662 38.75 56.1875 39.8737 58.0087C41.9663 58.125 44.175 58.125 46.5 58.125C48.825 58.125 51.0337 58.125 53.1263 58.0087C54.25 56.1875 55.49 54.3662 56.6525 52.3125ZM46.5 26.2725C45.7637 27.125 44.9888 28.0162 44.2137 29.0625C44.9888 29.0625 45.725 29.0625 46.5 29.0625C47.275 29.0625 48.0112 29.0625 48.7863 29.0625C48.0112 28.0162 47.2363 27.125 46.5 26.2725ZM46.5 66.7275C47.2363 65.875 48.0112 64.9837 48.7863 63.9375C48.0112 63.9375 47.275 63.9375 46.5 63.9375C45.725 63.9375 44.9888 63.9375 44.2137 63.9375C44.9888 64.9837 45.7637 65.875 46.5 66.7275ZM64.4025 15.5C62 14.0275 56.6525 16.275 50.4912 22.0875C52.5062 24.3737 54.4825 26.8537 56.3425 29.45C59.52 29.76 62.6588 30.225 65.6425 30.845C67.6188 22.5525 66.8825 16.8562 64.4025 15.5ZM61.69 37.7425L62.8137 39.7187C63.24 38.595 63.6662 37.4712 63.9375 36.3862C62.8913 36.1537 61.7287 35.96 60.5275 35.7662C60.915 36.425 61.3025 37.0837 61.69 37.7425ZM67.3088 10.4237C73.005 13.6787 73.625 22.2425 71.2225 32.24C81.065 35.1462 88.1562 39.9512 88.1562 46.5C88.1562 53.0487 81.065 57.8537 71.2225 60.76C73.625 70.7575 73.005 79.3212 67.3088 82.5762C61.6513 85.8312 53.94 82.1113 46.5 75.02C39.06 82.1113 31.3487 85.8312 25.6525 82.5762C19.995 79.3212 19.375 70.7575 21.7775 60.76C11.935 57.8537 4.84375 53.0487 4.84375 46.5C4.84375 39.9512 11.935 35.1462 21.7775 32.24C19.375 22.2425 19.995 13.6787 25.6525 10.4237C31.3487 7.16875 39.06 10.8887 46.5 17.98C53.94 10.8887 61.6513 7.16875 67.3088 10.4237ZM66.185 46.5C67.5025 49.4062 68.665 52.3125 69.6338 55.2575C77.7712 52.8162 82.3438 49.3287 82.3438 46.5C82.3438 43.6712 77.7712 40.1837 69.6338 37.7425C68.665 40.6875 67.5025 43.5937 66.185 46.5ZM26.815 46.5C25.4975 43.5937 24.335 40.6875 23.3663 37.7425C15.2288 40.1837 10.6562 43.6712 10.6562 46.5C10.6562 49.3287 15.2288 52.8162 23.3663 55.2575C24.335 52.3125 25.4975 49.4062 26.815 46.5ZM61.69 55.2575C61.3025 55.9162 60.915 56.575 60.5275 57.2337C61.7287 57.04 62.8913 56.8462 63.9375 56.6137C63.6662 55.5287 63.24 54.405 62.8137 53.2812L61.69 55.2575ZM50.4912 70.9125C56.6525 76.725 62 78.9725 64.4025 77.5C66.8825 76.1437 67.6188 70.4475 65.6425 62.155C62.6588 62.775 59.52 63.24 56.3425 63.55C54.4825 66.1462 52.5062 68.6262 50.4912 70.9125ZM31.31 37.7425C31.6975 37.0837 32.085 36.425 32.4725 35.7662C31.2712 35.96 30.1087 36.1537 29.0625 36.3862C29.3337 37.4712 29.76 38.595 30.1863 39.7187L31.31 37.7425ZM42.5088 22.0875C36.3475 16.275 31 14.0275 28.5588 15.5C26.1175 16.8562 25.3813 22.5525 27.3575 30.845C30.3412 30.225 33.48 29.76 36.6575 29.45C38.5175 26.8537 40.4938 24.3737 42.5088 22.0875Z" fill="#1981E2"/>
</svg>
